{"title":"J Balvin ft. Anitta - Ginza (Anitta Remix) 2016","uid":13695455,"size":94717496,"categoryP":"video","categoryS":"music_videos","magnet":"?xt=urn:btih:8544a162cacab09ac4077e1e8f8b49319036ec86&amp;dn=J+Balvin+ft.+Anitta+-+Ginza+%28Anitta+Remix%29+2016&amp;tr=udp%3A%2F%2Ftracker.leechers-paradise.org%3A6969&amp;tr=udp%3A%2F%2Fzer0day.ch%3A1337&amp;tr=udp%3A%2F%2Fopen.demonii.com%3A1337&amp;tr=udp%3A%2F%2Ftracker.coppersurfer.tk%3A6969&amp;tr=udp%3A%2F%2Fexodus.desync.com%3A6969","seeders":9,"leechers":0,"uploader":"MeRaDil","files":1,"time":1456686313,"description":"MEDIA INFO\r\n\r\nJ Balvin ft. Anitta - Ginza (Anitta Remix)\r\n\r\nFormat                                   : MPEG-4\r\nFormat profile                           : Base Media\r\nCodec ID                                 : isom (isom/iso2/avc1/mp41)\r\nFile size                                : 90.3 MiB\r\nDuration                                 : 3mn 46s\r\nOverall bit rate                         : 3 339 Kbps\r\nMusicVid name                            : Ginza (Anitta Remix)\r\nPerformer                                : J Balvin ft. Anitta\r\nGenre                                    : Reggaeton\r\nContentType                              : Music Video\r\nRecorded date                            : 2016\r\nWriting application                      : Lavf56.32.100 / MeRaDil\r\nCover                                    : Yes\r\nRating                                   : ***\r\nArtist url                               : http://jbalvin.com/\r\nRelease time                             : Colombia/Brazil - february 25 - 2016\r\n \nhttp://www.topy.se/images/ginza-2a4962.png\r\n\r\nVideo\r\nID                                       : 1\r\nFormat                                   : AVC\r\nFormat/Info                              : Advanced Video Codec\r\nFormat profile                           :   \r\nFormat settings, CABAC                   : Yes\r\nFormat settings, ReFrames                : 2 frames\r\nCodec ID                                 : avc1\r\nCodec ID/Info                            : Advanced Video Coding\r\nDuration                                 : 3mn 46s\r\nBit rate                                 : 3 055 Kbps\r\nWidth                                    : 1 920 pixels\r\nHeight                                   : 1 080 pixels\r\nDisplay aspect ratio                     : 16:9\r\nFrame rate mode                          : Variable\r\nFrame rate                               : 23.976 (24000/1001) fps\r\nColor space                              : YUV\r\nChroma subsampling                       : 4:2:0\r\nBit depth                                : 8 bits\r\nScan type                                : Progressive\r\nBits/(Pixel*Frame)                       : 0.061\r\nStream size                              : 82.6 MiB (91%)\r\nColor range                              : Limited\r\n\r\nAudio\r\nID                                       : 2\r\nFormat                                   : AAC\r\nFormat/Info                              : Advanced Audio Codec\r\nFormat profile                           : LC\r\nCodec ID                                 : 40\r\nDuration                                 : 3mn 46s\r\nBit rate mode                            : Constant\r\nBit rate                                 : 256 Kbps\r\nChannel(s)                               : 2 channels\r\nChannel positions                        : Front: L R\r\nSampling rate                            : 44.1 KHz\r\nFrame rate                               : 43.066 fps (1024 spf)\r\nCompression mode                         : Lossy\r\nStream size                              : 6.92 MiB (8%)\r\nDefault                                  : Yes\r\nAlternate group                          : 1\r\n \nhttp://www.topy.se/images/ginza-1fef52.png\r\n \nhttp://www.topy.se/images/ginza90a98.png","torrent":{"xt":"urn:btih:8544a162cacab09ac4077e1e8f8b49319036ec86","amp;dn":"J+Balvin+ft.+Anitta+-+Ginza+%28Anitta+Remix%29+2016","amp;tr":["udp%3A%2F%2Ftracker.leechers-paradise.org%3A6969","udp%3A%2F%2Fzer0day.ch%3A1337","udp%3A%2F%2Fopen.demonii.com%3A1337","udp%3A%2F%2Ftracker.coppersurfer.tk%3A6969","udp%3A%2F%2Fexodus.desync.com%3A6969"],"infoHash":"8544a162cacab09ac4077e1e8f8b49319036ec86","infoHashBuffer":{"type":"Buffer","data":[133,68,161,98,202,202,176,154,196,7,126,30,143,139,73,49,144,54,236,134]},"announce":[],"urlList":[]}}